<?xml version="1.0" encoding="UTF-8" standalone="no"?>
<svg version="1.2" baseProfile="tiny"  xmlns="http://www.w3.org/2000/svg">
	<path fill="#ffffff" stroke-width="1.0" fill-opacity="1.0" stroke-opacity="1.0" d="M0 4C0 1.79086 1.79086 0 4 0L24.4223 0C26.6314 0 28.4223 1.79086 28.4223 4L28.4223 24C28.4223 26.2091 26.6314 28 24.4223 28L4 28C1.79086 28 0 26.2091 0 24L0 4Z"/>
	<path fill="#e1e1e1" stroke-width="1.0" fill-opacity="1.0" stroke-opacity="1.0" d="M4 1L24.4223 1L24.4223 -1L4 -1L4 1ZM27.4223 4L27.4223 24L29.4223 24L29.4223 4L27.4223 4ZM24.4223 27L4 27L4 29L24.4223 29L24.4223 27ZM1 24L1 4L-1 4L-1 24L1 24ZM4 27C2.34314 27 1 25.6569 1 24L-1 24C-1 26.7614 1.23857 29 4 29L4 27ZM27.4223 24C27.4223 25.6569 26.0791 27 24.4223 27L24.4223 29C27.1837 29 29.4223 26.7614 29.4223 24L27.4223 24ZM24.4223 1C26.0791 1 27.4223 2.34314 27.4223 4L29.4223 4C29.4223 1.23858 27.1837 -1 24.4223 -1L24.4223 1ZM4 -1C1.23858 -1 -1 1.23858 -1 4L1 4C1 2.34315 2.34315 1 4 1L4 -1Z"/>
</svg>