<?xml version="1.0" encoding="UTF-8" standalone="no"?>
<svg version="1.2" baseProfile="tiny"  xmlns="http://www.w3.org/2000/svg">
	<path fill="#ffffff" stroke-width="3.0" fill-opacity="1.0" stroke-opacity="1.0" d="M1.18126 6.40887C0.670691 5.75648 -0.272072 5.64151 -0.924462 6.15208C-1.57685 6.66264 -1.69182 7.60541 -1.18126 8.2578L1.18126 6.40887ZM3.65217 12L2.47092 12.9245C2.76436 13.2994 3.2184 13.5128 3.69435 13.4994C4.1703 13.486 4.61163 13.2475 4.88353 12.8566L3.65217 12ZM13.2314 0.856597C13.7044 0.176537 13.5367 -0.758273 12.8566 -1.23136C12.1765 -1.70444 11.2417 -1.53666 10.7686 -0.856597L13.2314 0.856597ZM-1.18126 8.2578L2.47092 12.9245L4.83343 11.0755L1.18126 6.40887L-1.18126 8.2578ZM4.88353 12.8566L13.2314 0.856597L10.7686 -0.856597L2.42082 11.1434L4.88353 12.8566Z"/>
</svg>