<?xml version="1.0" encoding="UTF-8" standalone="no"?>
<svg version="1.2" baseProfile="tiny"  xmlns="http://www.w3.org/2000/svg">
	<path fill="#f1f1f1" stroke-width="1.0" fill-opacity="1.0" stroke-opacity="1.0" d="M0 0L875 0L875 83L0 83L0 0Z"/>
	<path fill="#d2d2d2" stroke-width="1.0" fill-opacity="1.0" stroke-opacity="1.0" d="M0 0L0 -1L-1 -1L-1 0L0 0ZM875 0L876 0L876 -1L875 -1L875 0ZM875 83L875 84L876 84L876 83L875 83ZM0 83L-1 83L-1 84L0 84L0 83ZM0 1L875 1L875 -1L0 -1L0 1ZM874 0L874 83L876 83L876 0L874 0ZM875 82L0 82L0 84L875 84L875 82ZM1 83L1 0L-1 0L-1 83L1 83Z"/>
</svg>