<?xml version="1.0" encoding="UTF-8" standalone="no"?>
<svg version="1.2" baseProfile="tiny"  xmlns="http://www.w3.org/2000/svg">
	<path fill="#ffffff" stroke-width="1.0" fill-opacity="1.0" stroke-opacity="1.0" d="M0 4C0 1.79086 1.79086 0 4 0L24 0C26.2091 0 28 1.79086 28 4L28 24C28 26.2091 26.2091 28 24 28L4 28C1.79086 28 0 26.2091 0 24L0 4Z"/>
	<path fill="#e1e1e1" stroke-width="1.0" fill-opacity="1.0" stroke-opacity="1.0" d="M4 1L24 1L24 -1L4 -1L4 1ZM27 4L27 24L29 24L29 4L27 4ZM24 27L4 27L4 29L24 29L24 27ZM1 24L1 4L-1 4L-1 24L1 24ZM4 27C2.34315 27 1 25.6569 1 24L-1 24C-1 26.7614 1.23858 29 4 29L4 27ZM27 24C27 25.6569 25.6569 27 24 27L24 29C26.7614 29 29 26.7614 29 24L27 24ZM24 1C25.6569 1 27 2.34315 27 4L29 4C29 1.23858 26.7614 -1 24 -1L24 1ZM4 -1C1.23858 -1 -1 1.23858 -1 4L1 4C1 2.34315 2.34315 1 4 1L4 -1Z"/>
</svg>