<?xml version="1.0" encoding="UTF-8" standalone="no"?>
<svg version="1.2" baseProfile="tiny"  xmlns="http://www.w3.org/2000/svg">
	<path fill="#ffffff" stroke-width="0.5" fill-opacity="1.0" stroke-opacity="1.0" d="M0 11.2C0 7.27963 0 5.31945 0.762954 3.82207C1.43407 2.50493 2.50493 1.43407 3.82207 0.762954C5.31945 0 7.27963 0 11.2 0L139.213 0C143.134 0 145.094 0 146.591 0.762954C147.908 1.43407 148.979 2.50493 149.65 3.82207C150.413 5.31945 150.413 7.27963 150.413 11.2L150.413 28.2286C150.413 32.1489 150.413 34.1091 149.65 35.6065C148.979 36.9236 147.908 37.9945 146.591 38.6656C145.094 39.4286 143.134 39.4286 139.213 39.4286L11.2 39.4286C7.27964 39.4286 5.31945 39.4286 3.82207 38.6656C2.50493 37.9945 1.43407 36.9236 0.762954 35.6065C0 34.1091 0 32.1489 0 28.2286L0 11.2Z"/>
	<path fill="#000000" stroke-width="0.5" fill-opacity="0.03999999910593033" stroke-opacity="0.03999999910593033" d="M3.82207 38.6656L3.59507 39.1111L3.82207 38.6656ZM149.65 35.6065L149.205 35.3795L149.65 35.6065ZM146.591 38.6656L146.364 38.2201L146.591 38.6656ZM149.65 3.82207L150.096 3.59507L149.65 3.82207ZM11.2 0.5L139.213 0.5L139.213 -0.5L11.2 -0.5L11.2 0.5ZM149.913 11.2L149.913 28.2286L150.913 28.2286L150.913 11.2L149.913 11.2ZM139.213 38.9286L11.2 38.9286L11.2 39.9286L139.213 39.9286L139.213 38.9286ZM0.5 28.2286L0.5 11.2L-0.5 11.2L-0.5 28.2286L0.5 28.2286ZM11.2 38.9286C9.23157 38.9286 7.78532 38.9282 6.64313 38.8349C5.50679 38.742 4.71552 38.5597 4.04906 38.2201L3.59507 39.1111C4.426 39.5345 5.36351 39.7336 6.5617 39.8315C7.75405 39.929 9.24807 39.9286 11.2 39.9286L11.2 38.9286ZM-0.5 28.2286C-0.5 30.1805 -0.500389 31.6745 -0.40297 32.8669C-0.305075 34.0651 -0.105926 35.0026 0.317451 35.8335L1.20846 35.3795C0.868881 34.7131 0.686552 33.9218 0.593709 32.7854C0.500389 31.6433 0.5 30.197 0.5 28.2286L-0.5 28.2286ZM4.04906 38.2201C2.82601 37.5969 1.83163 36.6026 1.20846 35.3795L0.317451 35.8335C1.0365 37.2447 2.18386 38.3921 3.59507 39.1111L4.04906 38.2201ZM149.913 28.2286C149.913 30.197 149.913 31.6433 149.82 32.7854C149.727 33.9218 149.544 34.7131 149.205 35.3795L150.096 35.8335C150.519 35.0026 150.718 34.0651 150.816 32.8669C150.914 31.6745 150.913 30.1805 150.913 28.2286L149.913 28.2286ZM139.213 39.9286C141.165 39.9286 142.659 39.929 143.852 39.8315C145.05 39.7336 145.987 39.5345 146.818 39.1111L146.364 38.2201C145.698 38.5597 144.906 38.742 143.77 38.8349C142.628 38.9282 141.182 38.9286 139.213 38.9286L139.213 39.9286ZM149.205 35.3795C148.582 36.6026 147.587 37.5969 146.364 38.2201L146.818 39.1111C148.229 38.3921 149.377 37.2447 150.096 35.8335L149.205 35.3795ZM139.213 0.5C141.182 0.5 142.628 0.500389 143.77 0.593709C144.906 0.686552 145.698 0.868881 146.364 1.20846L146.818 0.317451C145.987 -0.105926 145.05 -0.305075 143.852 -0.40297C142.659 -0.500389 141.165 -0.5 139.213 -0.5L139.213 0.5ZM150.913 11.2C150.913 9.24807 150.914 7.75405 150.816 6.5617C150.718 5.36351 150.519 4.426 150.096 3.59507L149.205 4.04906C149.544 4.71552 149.727 5.50679 149.82 6.64313C149.913 7.78531 149.913 9.23157 149.913 11.2L150.913 11.2ZM146.364 1.20846C147.587 1.83163 148.582 2.82601 149.205 4.04906L150.096 3.59507C149.377 2.18386 148.229 1.0365 146.818 0.317451L146.364 1.20846ZM11.2 -0.5C9.24807 -0.5 7.75405 -0.500389 6.5617 -0.40297C5.36351 -0.305075 4.426 -0.105926 3.59507 0.317451L4.04906 1.20846C4.71552 0.868881 5.50679 0.686552 6.64313 0.593709C7.78531 0.500389 9.23157 0.5 11.2 0.5L11.2 -0.5ZM0.5 11.2C0.5 9.23156 0.500389 7.78531 0.593709 6.64313C0.686552 5.50679 0.868881 4.71552 1.20846 4.04906L0.317451 3.59507C-0.105926 4.426 -0.305075 5.36351 -0.40297 6.5617C-0.500389 7.75404 -0.5 9.24806 -0.5 11.2L0.5 11.2ZM3.59507 0.317451C2.18386 1.0365 1.0365 2.18386 0.317451 3.59507L1.20846 4.04906C1.83163 2.82601 2.82601 1.83163 4.04906 1.20846L3.59507 0.317451Z"/>
</svg>