<?xml version="1.0" encoding="UTF-8" standalone="no"?>
<svg version="1.2" baseProfile="tiny"  xmlns="http://www.w3.org/2000/svg">
	<path fill="#767680" stroke-width="0.0" fill-opacity="0.11999999731779099" stroke-opacity="0.11999999731779099" d="M0 14.4C0 9.35953 0 6.83929 0.980941 4.91409C1.8438 3.22063 3.22063 1.8438 4.91409 0.980941C6.83929 0 9.35953 0 14.4 0L302.6 0C307.64 0 310.161 0 312.086 0.980941C313.779 1.8438 315.156 3.22063 316.019 4.91409C317 6.83929 317 9.35953 317 14.4L317 31.6C317 36.6405 317 39.1607 316.019 41.0859C315.156 42.7794 313.779 44.1562 312.086 45.0191C310.161 46 307.64 46 302.6 46L14.4 46C9.35952 46 6.83929 46 4.91409 45.0191C3.22063 44.1562 1.8438 42.7794 0.980941 41.0859C0 39.1607 0 36.6405 0 31.6L0 14.4Z"/>
</svg>