<?xml version="1.0" encoding="UTF-8" standalone="no"?>
<svg version="1.2" baseProfile="tiny" viewBox="0 0 600 60" xmlns="http://www.w3.org/2000/svg">
	<path fill="#ffffff" stroke-width="1.0" fill-opacity="0.05999999865889549" stroke-opacity="0.05999999865889549" d="M0 25.6C0 16.6392 0 12.1587 1.7439 8.73615C3.27787 5.72556 5.72556 3.27787 8.73615 1.7439C12.1587 0 16.6392 0 25.6 0L574.4 0C583.361 0 587.841 0 591.264 1.7439C594.274 3.27787 596.722 5.72556 598.256 8.73615C600 12.1587 600 16.6392 600 25.6L600 34.4C600 43.3608 600 47.8413 598.256 51.2638C596.722 54.2744 594.274 56.7221 591.264 58.2561C587.841 60 583.361 60 574.4 60L25.6 60C16.6391 60 12.1587 60 8.73615 58.2561C5.72556 56.7221 3.27787 54.2744 1.7439 51.2638C0 47.8413 0 43.3608 0 34.4L0 25.6Z"/>
</svg>