<?xml version="1.0" encoding="UTF-8" standalone="no"?>
<svg version="1.2" baseProfile="tiny" viewBox="0 0 85 34" xmlns="http://www.w3.org/2000/svg">
	<path fill="#767680" stroke-width="0.0" fill-opacity="0.11999999731779099" stroke-opacity="0.11999999731779099" d="M0 12.8C0 8.31958 0 6.07937 0.871948 4.36808C1.63893 2.86278 2.86278 1.63893 4.36808 0.871948C6.07937 0 8.31958 0 12.8 0L72.2 0C76.6804 0 78.9206 0 80.6319 0.871948C82.1372 1.63893 83.3611 2.86278 84.1281 4.36808C85 6.07937 85 8.31958 85 12.8L85 21.2C85 25.6804 85 27.9206 84.1281 29.6319C83.3611 31.1372 82.1372 32.3611 80.6319 33.1281C78.9206 34 76.6804 34 72.2 34L12.8 34C8.31958 34 6.07937 34 4.36808 33.1281C2.86278 32.3611 1.63893 31.1372 0.871948 29.6319C0 27.9206 0 25.6804 0 21.2L0 12.8Z"/>
</svg>