<?xml version="1.0" encoding="UTF-8" standalone="no"?>
<svg version="1.2" baseProfile="tiny" viewBox="0 0 160 20" xmlns="http://www.w3.org/2000/svg">
	<path fill="#444444" stroke-width="1.0" fill-opacity="1.0" stroke-opacity="1.0" d="M0 0L160 0L160 20.0638L0 20.0638L0 0Z"/>
	<path fill="#757575" stroke-width="1.0" fill-opacity="1.0" stroke-opacity="1.0" d="M0 0L0 -1L-1 -1L-1 0L0 0ZM160 0L161 0L161 -1L160 -1L160 0ZM160 20.0638L160 21.0638L161 21.0638L161 20.0638L160 20.0638ZM0 20.0638L-1 20.0638L-1 21.0638L0 21.0638L0 20.0638ZM0 1L160 1L160 -1L0 -1L0 1ZM159 0L159 20.0638L161 20.0638L161 0L159 0ZM160 19.0638L0 19.0638L0 21.0638L160 21.0638L160 19.0638ZM1 20.0638L1 0L-1 0L-1 20.0638L1 20.0638Z"/>
</svg>