<?xml version="1.0" encoding="UTF-8" standalone="no"?>
<svg version="1.2" baseProfile="tiny" viewBox="0 0 136 74" xmlns="http://www.w3.org/2000/svg">
	<path fill="#ffffff" stroke-width="0.0" fill-opacity="0.10999999940395355" stroke-opacity="0.10999999940395355" d="M0 12.8C0 8.31958 0 6.07937 0.871948 4.36808C1.63893 2.86278 2.86278 1.63893 4.36808 0.871948C6.07937 0 8.31958 0 12.8 0L123.2 0C127.68 0 129.921 0 131.632 0.871948C133.137 1.63893 134.361 2.86278 135.128 4.36808C136 6.07937 136 8.31958 136 12.8L136 61.2C136 65.6804 136 67.9206 135.128 69.6319C134.361 71.1372 133.137 72.3611 131.632 73.1281C129.921 74 127.68 74 123.2 74L12.8 74C8.31958 74 6.07937 74 4.36808 73.1281C2.86278 72.3611 1.63893 71.1372 0.871948 69.6319C0 67.9206 0 65.6804 0 61.2L0 12.8Z"/>
</svg>