<?xml version="1.0" encoding="UTF-8" standalone="no"?>
<svg version="1.2" baseProfile="tiny" viewBox="0 0 357 370" xmlns="http://www.w3.org/2000/svg">
	<path fill="#ffffff" stroke-width="1.0" fill-opacity="1.0" stroke-opacity="1.0" d="M0 20.8C0 13.5193 0 9.87898 1.41692 7.09812C2.66327 4.65202 4.65202 2.66327 7.09812 1.41692C9.87898 0 13.5193 0 20.8 0L336.2 0C343.481 0 347.121 0 349.902 1.41692C352.348 2.66327 354.337 4.65202 355.583 7.09812C357 9.87898 357 13.5193 357 20.8L357 349.2C357 356.481 357 360.121 355.583 362.902C354.337 365.348 352.348 367.337 349.902 368.583C347.121 370 343.481 370 336.2 370L20.8 370C13.5193 370 9.87898 370 7.09812 368.583C4.65202 367.337 2.66327 365.348 1.41692 362.902C0 360.121 0 356.481 0 349.2L0 20.8Z"/>
</svg>