<?xml version="1.0" encoding="UTF-8" standalone="no"?>
<svg version="1.2" baseProfile="tiny" viewBox="0 0 383 505" xmlns="http://www.w3.org/2000/svg">
	<path fill="#fef7ff" stroke-width="1.0" fill-opacity="1.0" stroke-opacity="1.0" d="M0 16C0 7.16343 7.16344 0 16 0L367 0C375.837 0 383 7.16344 383 16L383 489C383 497.837 375.837 505 367 505L16 505C7.16345 505 0 497.837 0 489L0 16Z"/>
	<path fill="#cac4d0" stroke-width="1.0" fill-opacity="1.0" stroke-opacity="1.0" d="M16 1L367 1L367 -1L16 -1L16 1ZM382 16L382 489L384 489L384 16L382 16ZM367 504L16 504L16 506L367 506L367 504ZM1 489L1 16L-1 16L-1 489L1 489ZM16 504C7.71573 504 1 497.284 1 489L-1 489C-1 498.389 6.61116 506 16 506L16 504ZM382 489C382 497.284 375.284 504 367 504L367 506C376.389 506 384 498.389 384 489L382 489ZM367 1C375.284 1 382 7.71573 382 16L384 16C384 6.61116 376.389 -1 367 -1L367 1ZM16 -1C6.61116 -1 -1 6.61115 -1 16L1 16C1 7.71572 7.71573 1 16 1L16 -1Z"/>
</svg>