<?xml version="1.0" encoding="UTF-8" standalone="no"?>
<svg version="1.2" baseProfile="tiny" viewBox="0 0 72 32" xmlns="http://www.w3.org/2000/svg">
	<path fill="#ececef" stroke-width="2.0" fill-opacity="1.0" stroke-opacity="1.0" d="M0 4C0 1.79086 1.79086 0 4 0L68 0C70.2091 0 72 1.79086 72 4L72 28C72 30.2091 70.2091 32 68 32L4 32C1.79086 32 0 30.2091 0 28L0 4Z"/>
	<path fill="#89888d" stroke-width="2.0" fill-opacity="1.0" stroke-opacity="1.0" d="M4 2L68 2L68 -2L4 -2L4 2ZM70 4L70 28L74 28L74 4L70 4ZM68 30L4 30L4 34L68 34L68 30ZM2 28L2 4L-2 4L-2 28L2 28ZM4 30C2.89543 30 2 29.1046 2 28L-2 28C-2 31.3137 0.686295 34 4 34L4 30ZM70 28C70 29.1046 69.1046 30 68 30L68 34C71.3137 34 74 31.3137 74 28L70 28ZM68 2C69.1046 2 70 2.89543 70 4L74 4C74 0.68629 71.3137 -2 68 -2L68 2ZM4 -2C0.686292 -2 -2 0.686292 -2 4L2 4C2 2.89543 2.89543 2 4 2L4 -2Z"/>
</svg>