<?xml version="1.0" encoding="UTF-8" standalone="no"?>
<svg version="1.2" baseProfile="tiny" viewBox="0 0 80 74" xmlns="http://www.w3.org/2000/svg">
	<path fill="#ffffff" stroke-width="0.0" fill-opacity="0.30000001192092896" stroke-opacity="0.30000001192092896" d="M0 12.8C0 8.31958 0 6.07937 0.871948 4.36808C1.63893 2.86278 2.86278 1.63893 4.36808 0.871948C6.07937 0 8.31958 0 12.8 0L67.9 0C72.3804 0 74.6206 0 76.3319 0.871948C77.8372 1.63893 79.0611 2.86278 79.828 4.36808C80.7 6.07937 80.7 8.31958 80.7 12.8L80.7 61.2C80.7 65.6804 80.7 67.9206 79.828 69.6319C79.0611 71.1372 77.8372 72.3611 76.3319 73.1281C74.6206 74 72.3804 74 67.9 74L12.8 74C8.31958 74 6.07937 74 4.36808 73.1281C2.86278 72.3611 1.63893 71.1372 0.871948 69.6319C0 67.9206 0 65.6804 0 61.2L0 12.8Z"/>
</svg>