<?xml version="1.0" encoding="UTF-8" standalone="no"?>
<svg version="1.2" baseProfile="tiny" viewBox="0 0 107 37" xmlns="http://www.w3.org/2000/svg">
	<path fill="#444444" stroke-width="1.0" fill-opacity="1.0" stroke-opacity="1.0" d="M0 0L107 0L107 37L0 37L0 0Z"/>
	<path fill="#757575" stroke-width="1.0" fill-opacity="1.0" stroke-opacity="1.0" d="M0 0L0 -1L-1 -1L-1 0L0 0ZM107 0L108 0L108 -1L107 -1L107 0ZM107 37L107 38L108 38L108 37L107 37ZM0 37L-1 37L-1 38L0 38L0 37ZM0 1L107 1L107 -1L0 -1L0 1ZM106 0L106 37L108 37L108 0L106 0ZM107 36L0 36L0 38L107 38L107 36ZM1 37L1 0L-1 0L-1 37L1 37Z"/>
</svg>