<?xml version="1.0" encoding="UTF-8" standalone="no"?>
<svg version="1.2" baseProfile="tiny" viewBox="0 0 17 22" xmlns="http://www.w3.org/2000/svg">
	<path fill="#625b71" stroke-width="0.0" fill-opacity="1.0" stroke-opacity="1.0" d="M0 20L0 2C0 0.9 0.9 0.01 2 0.01L12 0C13.1 0 14 0.9 14 2L14 6L12 6L12 5L2 5L2 17L12 17L12 16L14 16L14 20C14 21.1 13.1 22 12 22L2 22C0.9 22 0 21.1 0 20ZM12 20L12 19L2 19L2 20L12 20ZM2 2L12 2L12 3L2 3L2 2ZM17.2 8.55L15.8 7.15L10.75 12.2L8.4 9.85L7 11.25L10.75 15L17.2 8.55Z"/>
</svg>