<?xml version="1.0" encoding="UTF-8" standalone="no"?>
<svg version="1.2" baseProfile="tiny" viewBox="0 0 360 340" xmlns="http://www.w3.org/2000/svg">
	<path fill="#5a769d" stroke-width="1.0" fill-opacity="1.0" stroke-opacity="1.0" d="M0 5C0 2.23858 2.23858 0 5 0L355 0C357.761 0 360 2.23858 360 5L360 335C360 337.761 357.761 340 355 340L5 340C2.23858 340 0 337.761 0 335L0 5Z"/>
	<path fill="#ffffff" stroke-width="1.0" fill-opacity="1.0" stroke-opacity="1.0" d="M5 339.5C2.51472 339.5 0.5 337.485 0.5 335L-0.5 335C-0.5 338.038 1.96244 340.5 5 340.5L5 339.5ZM0.5 335L0.5 330L-0.5 330L-0.5 335L0.5 335ZM0.5 325L0.5 315L-0.5 315L-0.5 325L0.5 325ZM0.5 310L0.5 300L-0.5 300L-0.5 310L0.5 310ZM0.5 295L0.5 285L-0.5 285L-0.5 295L0.5 295ZM0.5 280L0.5 270L-0.5 270L-0.5 280L0.5 280ZM0.5 265L0.5 255L-0.5 255L-0.5 265L0.5 265ZM0.5 250L0.5 240L-0.5 240L-0.5 250L0.5 250ZM0.5 235L0.5 225L-0.5 225L-0.5 235L0.5 235ZM0.5 220L0.5 210L-0.5 210L-0.5 220L0.5 220ZM0.5 205L0.5 195L-0.5 195L-0.5 205L0.5 205ZM0.5 190L0.5 180L-0.5 180L-0.5 190L0.5 190ZM0.5 175L0.5 165L-0.5 165L-0.5 175L0.5 175ZM0.5 160L0.5 150L-0.5 150L-0.5 160L0.5 160ZM0.5 145L0.5 135L-0.5 135L-0.5 145L0.5 145ZM0.5 130L0.5 120L-0.5 120L-0.5 130L0.5 130ZM0.5 115L0.5 105L-0.5 105L-0.5 115L0.5 115ZM0.5 100L0.5 90L-0.5 90L-0.5 100L0.5 100ZM0.5 85L0.5 75L-0.5 75L-0.5 85L0.5 85ZM0.5 70L0.5 60L-0.5 60L-0.5 70L0.5 70ZM0.5 55L0.5 45L-0.5 45L-0.5 55L0.5 55ZM0.5 40L0.5 30L-0.5 30L-0.5 40L0.5 40ZM0.5 25L0.5 15L-0.5 15L-0.5 25L0.5 25ZM0.5 10L0.5 5L-0.5 5L-0.5 10L0.5 10ZM0.5 5C0.5 2.51472 2.51472 0.5 5 0.5L5 -0.5C1.96243 -0.5 -0.5 1.96244 -0.5 5L0.5 5ZM5 0.5L10.0725 0.5L10.0725 -0.5L5 -0.5L5 0.5ZM15.1449 0.5L25.2899 0.5L25.2899 -0.5L15.1449 -0.5L15.1449 0.5ZM30.3623 0.5L40.5072 0.5L40.5072 -0.5L30.3623 -0.5L30.3623 0.5ZM45.5797 0.5L55.7246 0.5L55.7246 -0.5L45.5797 -0.5L45.5797 0.5ZM60.7971 0.5L70.942 0.5L70.942 -0.5L60.7971 -0.5L60.7971 0.5ZM76.0145 0.5L86.1594 0.5L86.1594 -0.5L76.0145 -0.5L76.0145 0.5ZM91.2319 0.5L101.377 0.5L101.377 -0.5L91.2319 -0.5L91.2319 0.5ZM106.449 0.5L116.594 0.5L116.594 -0.5L106.449 -0.5L106.449 0.5ZM121.667 0.5L131.812 0.5L131.812 -0.5L121.667 -0.5L121.667 0.5ZM136.884 0.5L147.029 0.5L147.029 -0.5L136.884 -0.5L136.884 0.5ZM152.101 0.5L162.246 0.5L162.246 -0.5L152.101 -0.5L152.101 0.5ZM167.319 0.5L177.464 0.5L177.464 -0.5L167.319 -0.5L167.319 0.5ZM182.536 0.5L192.681 0.5L192.681 -0.5L182.536 -0.5L182.536 0.5ZM197.754 0.5L207.899 0.5L207.899 -0.5L197.754 -0.5L197.754 0.5ZM212.971 0.5L223.116 0.5L223.116 -0.5L212.971 -0.5L212.971 0.5ZM228.188 0.5L238.333 0.5L238.333 -0.5L228.188 -0.5L228.188 0.5ZM243.406 0.5L253.551 0.5L253.551 -0.5L243.406 -0.5L243.406 0.5ZM258.623 0.5L268.768 0.5L268.768 -0.5L258.623 -0.5L258.623 0.5ZM273.841 0.5L283.986 0.5L283.986 -0.5L273.841 -0.5L273.841 0.5ZM289.058 0.5L299.203 0.5L299.203 -0.5L289.058 -0.5L289.058 0.5ZM304.275 0.5L314.42 0.5L314.42 -0.5L304.275 -0.5L304.275 0.5ZM319.493 0.5L329.638 0.5L329.638 -0.5L319.493 -0.5L319.493 0.5ZM334.71 0.5L344.855 0.5L344.855 -0.5L334.71 -0.5L334.71 0.5ZM349.928 0.5L355 0.5L355 -0.5L349.928 -0.5L349.928 0.5ZM355 0.5C357.485 0.5 359.5 2.51472 359.5 5L360.5 5C360.5 1.96243 358.038 -0.5 355 -0.5L355 0.5ZM359.5 5L359.5 10L360.5 10L360.5 5L359.5 5ZM359.5 15L359.5 25L360.5 25L360.5 15L359.5 15ZM359.5 30L359.5 40L360.5 40L360.5 30L359.5 30ZM359.5 45L359.5 55L360.5 55L360.5 45L359.5 45ZM359.5 60L359.5 70L360.5 70L360.5 60L359.5 60ZM359.5 75L359.5 85L360.5 85L360.5 75L359.5 75ZM359.5 90L359.5 100L360.5 100L360.5 90L359.5 90ZM359.5 105L359.5 115L360.5 115L360.5 105L359.5 105ZM359.5 120L359.5 130L360.5 130L360.5 120L359.5 120ZM359.5 135L359.5 145L360.5 145L360.5 135L359.5 135ZM359.5 150L359.5 160L360.5 160L360.5 150L359.5 150ZM359.5 165L359.5 175L360.5 175L360.5 165L359.5 165ZM359.5 180L359.5 190L360.5 190L360.5 180L359.5 180ZM359.5 195L359.5 205L360.5 205L360.5 195L359.5 195ZM359.5 210L359.5 220L360.5 220L360.5 210L359.5 210ZM359.5 225L359.5 235L360.5 235L360.5 225L359.5 225ZM359.5 240L359.5 250L360.5 250L360.5 240L359.5 240ZM359.5 255L359.5 265L360.5 265L360.5 255L359.5 255ZM359.5 270L359.5 280L360.5 280L360.5 270L359.5 270ZM359.5 285L359.5 295L360.5 295L360.5 285L359.5 285ZM359.5 300L359.5 310L360.5 310L360.5 300L359.5 300ZM359.5 315L359.5 325L360.5 325L360.5 315L359.5 315ZM359.5 330L359.5 335L360.5 335L360.5 330L359.5 330ZM359.5 335C359.5 337.485 357.485 339.5 355 339.5L355 340.5C358.038 340.5 360.5 338.038 360.5 335L359.5 335ZM355 339.5L349.928 339.5L349.928 340.5L355 340.5L355 339.5ZM344.855 339.5L334.71 339.5L334.71 340.5L344.855 340.5L344.855 339.5ZM329.638 339.5L319.493 339.5L319.493 340.5L329.638 340.5L329.638 339.5ZM314.42 339.5L304.275 339.5L304.275 340.5L314.42 340.5L314.42 339.5ZM299.203 339.5L289.058 339.5L289.058 340.5L299.203 340.5L299.203 339.5ZM283.986 339.5L273.841 339.5L273.841 340.5L283.986 340.5L283.986 339.5ZM268.768 339.5L258.623 339.5L258.623 340.5L268.768 340.5L268.768 339.5ZM253.551 339.5L243.406 339.5L243.406 340.5L253.551 340.5L253.551 339.5ZM238.333 339.5L228.188 339.5L228.188 340.5L238.333 340.5L238.333 339.5ZM223.116 339.5L212.971 339.5L212.971 340.5L223.116 340.5L223.116 339.5ZM207.899 339.5L197.754 339.5L197.754 340.5L207.899 340.5L207.899 339.5ZM192.681 339.5L182.536 339.5L182.536 340.5L192.681 340.5L192.681 339.5ZM177.464 339.5L167.319 339.5L167.319 340.5L177.464 340.5L177.464 339.5ZM162.246 339.5L152.101 339.5L152.101 340.5L162.246 340.5L162.246 339.5ZM147.029 339.5L136.884 339.5L136.884 340.5L147.029 340.5L147.029 339.5ZM131.812 339.5L121.667 339.5L121.667 340.5L131.812 340.5L131.812 339.5ZM116.594 339.5L106.449 339.5L106.449 340.5L116.594 340.5L116.594 339.5ZM101.377 339.5L91.2319 339.5L91.2319 340.5L101.377 340.5L101.377 339.5ZM86.1594 339.5L76.0145 339.5L76.0145 340.5L86.1594 340.5L86.1594 339.5ZM70.942 339.5L60.7971 339.5L60.7971 340.5L70.942 340.5L70.942 339.5ZM55.7246 339.5L45.5797 339.5L45.5797 340.5L55.7246 340.5L55.7246 339.5ZM40.5072 339.5L30.3623 339.5L30.3623 340.5L40.5072 340.5L40.5072 339.5ZM25.2898 339.5L15.1449 339.5L15.1449 340.5L25.2898 340.5L25.2898 339.5ZM10.0724 339.5L5 339.5L5 340.5L10.0724 340.5L10.0724 339.5ZM5 339C2.79086 339 1 337.209 1 335L-1 335C-1 338.314 1.68629 341 5 341L5 339ZM1 335L1 330L-1 330L-1 335L1 335ZM1 325L1 315L-1 315L-1 325L1 325ZM1 310L1 300L-1 300L-1 310L1 310ZM1 295L1 285L-1 285L-1 295L1 295ZM1 280L1 270L-1 270L-1 280L1 280ZM1 265L1 255L-1 255L-1 265L1 265ZM1 250L1 240L-1 240L-1 250L1 250ZM1 235L1 225L-1 225L-1 235L1 235ZM1 220L1 210L-1 210L-1 220L1 220ZM1 205L1 195L-1 195L-1 205L1 205ZM1 190L1 180L-1 180L-1 190L1 190ZM1 175L1 165L-1 165L-1 175L1 175ZM1 160L1 150L-1 150L-1 160L1 160ZM1 145L1 135L-1 135L-1 145L1 145ZM1 130L1 120L-1 120L-1 130L1 130ZM1 115L1 105L-1 105L-1 115L1 115ZM1 100L1 90L-1 90L-1 100L1 100ZM1 85L1 75L-1 75L-1 85L1 85ZM1 70L1 60L-1 60L-1 70L1 70ZM1 55L1 45L-1 45L-1 55L1 55ZM1 40L1 30L-1 30L-1 40L1 40ZM1 25L1 15L-1 15L-1 25L1 25ZM1 10L1 5L-1 5L-1 10L1 10ZM1 5C1 2.79086 2.79086 1 5 1L5 -1C1.68629 -1 -1 1.6863 -1 5L1 5ZM5 1L10.0725 1L10.0725 -1L5 -1L5 1ZM15.1449 1L25.2899 1L25.2899 -1L15.1449 -1L15.1449 1ZM30.3623 1L40.5072 1L40.5072 -1L30.3623 -1L30.3623 1ZM45.5797 1L55.7246 1L55.7246 -1L45.5797 -1L45.5797 1ZM60.7971 1L70.942 1L70.942 -1L60.7971 -1L60.7971 1ZM76.0145 1L86.1594 1L86.1594 -1L76.0145 -1L76.0145 1ZM91.2319 1L101.377 1L101.377 -1L91.2319 -1L91.2319 1ZM106.449 1L116.594 1L116.594 -1L106.449 -1L106.449 1ZM121.667 1L131.812 1L131.812 -1L121.667 -1L121.667 1ZM136.884 1L147.029 1L147.029 -1L136.884 -1L136.884 1ZM152.101 1L162.246 1L162.246 -1L152.101 -1L152.101 1ZM167.319 1L177.464 1L177.464 -1L167.319 -1L167.319 1ZM182.536 1L192.681 1L192.681 -1L182.536 -1L182.536 1ZM197.754 1L207.899 1L207.899 -1L197.754 -1L197.754 1ZM212.971 1L223.116 1L223.116 -1L212.971 -1L212.971 1ZM228.188 1L238.333 1L238.333 -1L228.188 -1L228.188 1ZM243.406 1L253.551 1L253.551 -1L243.406 -1L243.406 1ZM258.623 1L268.768 1L268.768 -1L258.623 -1L258.623 1ZM273.841 1L283.986 1L283.986 -1L273.841 -1L273.841 1ZM289.058 1L299.203 1L299.203 -1L289.058 -1L289.058 1ZM304.275 1L314.42 1L314.42 -1L304.275 -1L304.275 1ZM319.493 1L329.638 1L329.638 -1L319.493 -1L319.493 1ZM334.71 1L344.855 1L344.855 -1L334.71 -1L334.71 1ZM349.928 1L355 1L355 -1L349.928 -1L349.928 1ZM355 1C357.209 1 359 2.79086 359 5L361 5C361 1.68629 358.314 -1 355 -1L355 1ZM359 5L359 10L361 10L361 5L359 5ZM359 15L359 25L361 25L361 15L359 15ZM359 30L359 40L361 40L361 30L359 30ZM359 45L359 55L361 55L361 45L359 45ZM359 60L359 70L361 70L361 60L359 60ZM359 75L359 85L361 85L361 75L359 75ZM359 90L359 100L361 100L361 90L359 90ZM359 105L359 115L361 115L361 105L359 105ZM359 120L359 130L361 130L361 120L359 120ZM359 135L359 145L361 145L361 135L359 135ZM359 150L359 160L361 160L361 150L359 150ZM359 165L359 175L361 175L361 165L359 165ZM359 180L359 190L361 190L361 180L359 180ZM359 195L359 205L361 205L361 195L359 195ZM359 210L359 220L361 220L361 210L359 210ZM359 225L359 235L361 235L361 225L359 225ZM359 240L359 250L361 250L361 240L359 240ZM359 255L359 265L361 265L361 255L359 255ZM359 270L359 280L361 280L361 270L359 270ZM359 285L359 295L361 295L361 285L359 285ZM359 300L359 310L361 310L361 300L359 300ZM359 315L359 325L361 325L361 315L359 315ZM359 330L359 335L361 335L361 330L359 330ZM359 335C359 337.209 357.209 339 355 339L355 341C358.314 341 361 338.314 361 335L359 335ZM355 339L349.928 339L349.928 341L355 341L355 339ZM344.855 339L334.71 339L334.71 341L344.855 341L344.855 339ZM329.638 339L319.493 339L319.493 341L329.638 341L329.638 339ZM314.42 339L304.275 339L304.275 341L314.42 341L314.42 339ZM299.203 339L289.058 339L289.058 341L299.203 341L299.203 339ZM283.986 339L273.841 339L273.841 341L283.986 341L283.986 339ZM268.768 339L258.623 339L258.623 341L268.768 341L268.768 339ZM253.551 339L243.406 339L243.406 341L253.551 341L253.551 339ZM238.333 339L228.188 339L228.188 341L238.333 341L238.333 339ZM223.116 339L212.971 339L212.971 341L223.116 341L223.116 339ZM207.899 339L197.754 339L197.754 341L207.899 341L207.899 339ZM192.681 339L182.536 339L182.536 341L192.681 341L192.681 339ZM177.464 339L167.319 339L167.319 341L177.464 341L177.464 339ZM162.246 339L152.101 339L152.101 341L162.246 341L162.246 339ZM147.029 339L136.884 339L136.884 341L147.029 341L147.029 339ZM131.812 339L121.667 339L121.667 341L131.812 341L131.812 339ZM116.594 339L106.449 339L106.449 341L116.594 341L116.594 339ZM101.377 339L91.2319 339L91.2319 341L101.377 341L101.377 339ZM86.1594 339L76.0145 339L76.0145 341L86.1594 341L86.1594 339ZM70.942 339L60.7971 339L60.7971 341L70.942 341L70.942 339ZM55.7246 339L45.5797 339L45.5797 341L55.7246 341L55.7246 339ZM40.5072 339L30.3623 339L30.3623 341L40.5072 341L40.5072 339ZM25.2898 339L15.1449 339L15.1449 341L25.2898 341L25.2898 339ZM10.0724 339L5 339L5 341L10.0724 341L10.0724 339Z"/>
</svg>