<?xml version="1.0" encoding="UTF-8" standalone="no"?>
<svg version="1.2" baseProfile="tiny" viewBox="0 0 69 32" xmlns="http://www.w3.org/2000/svg">
	<path fill="#dcdcde" stroke-width="2.0" fill-opacity="1.0" stroke-opacity="1.0" d="M0 4C0 1.79086 1.79086 0 4 0L65 0C67.2091 0 69 1.79086 69 4L69 28C69 30.2091 67.2091 32 65 32L4 32C1.79086 32 0 30.2091 0 28L0 4Z"/>
	<path fill="#929292" stroke-width="2.0" fill-opacity="1.0" stroke-opacity="1.0" d="M4 2L65 2L65 -2L4 -2L4 2ZM67 4L67 28L71 28L71 4L67 4ZM65 30L4 30L4 34L65 34L65 30ZM2 28L2 4L-2 4L-2 28L2 28ZM4 30C2.89543 30 2 29.1046 2 28L-2 28C-2 31.3137 0.68629 34 4 34L4 30ZM67 28C67 29.1046 66.1046 30 65 30L65 34C68.3137 34 71 31.3137 71 28L67 28ZM65 2C66.1046 2 67 2.89543 67 4L71 4C71 0.686292 68.3137 -2 65 -2L65 2ZM4 -2C0.686292 -2 -2 0.686292 -2 4L2 4C2 2.89543 2.89543 2 4 2L4 -2Z"/>
</svg>