<?xml version="1.0" encoding="UTF-8" standalone="no"?>
<svg version="1.2" baseProfile="tiny" viewBox="0 0 45 37" xmlns="http://www.w3.org/2000/svg">
	<path fill="#444444" stroke-width="1.0" fill-opacity="1.0" stroke-opacity="1.0" d="M0 0L45 0L45 37L0 37L0 0Z"/>
	<path fill="#757575" stroke-width="1.0" fill-opacity="1.0" stroke-opacity="1.0" d="M0 0L0 -1L-1 -1L-1 0L0 0ZM45 0L46 0L46 -1L45 -1L45 0ZM45 37L45 38L46 38L46 37L45 37ZM0 37L-1 37L-1 38L0 38L0 37ZM0 1L45 1L45 -1L0 -1L0 1ZM44 0L44 37L46 37L46 0L44 0ZM45 36L0 36L0 38L45 38L45 36ZM1 37L1 0L-1 0L-1 37L1 37Z"/>
</svg>