<?xml version="1.0" encoding="UTF-8" standalone="no"?>
<svg version="1.2" baseProfile="tiny" viewBox="0 0 165 74" xmlns="http://www.w3.org/2000/svg">
	<path fill="#ffffff" stroke-width="0.0" fill-opacity="0.11999999731779099" stroke-opacity="0.11999999731779099" d="M0 12.8C0 8.31958 0 6.07937 0.871948 4.36808C1.63893 2.86278 2.86278 1.63893 4.36808 0.871948C6.07937 0 8.31958 0 12.8 0L152.2 0C156.68 0 158.921 0 160.632 0.871948C162.137 1.63893 163.361 2.86278 164.128 4.36808C165 6.07937 165 8.31958 165 12.8L165 61.2C165 65.6804 165 67.9206 164.128 69.6319C163.361 71.1372 162.137 72.3611 160.632 73.1281C158.921 74 156.68 74 152.2 74L12.8 74C8.31958 74 6.07937 74 4.36808 73.1281C2.86278 72.3611 1.63893 71.1372 0.871948 69.6319C0 67.9206 0 65.6804 0 61.2L0 12.8Z"/>
</svg>