<?xml version="1.0" encoding="UTF-8" standalone="no"?>
<svg version="1.2" baseProfile="tiny" viewBox="0 0 44 44" xmlns="http://www.w3.org/2000/svg">
	<path fill="#ff4015" stroke-width="3.0" fill-opacity="1.0" stroke-opacity="1.0" d="M22 41C11.5066 41 3 32.4934 3 22L-3 22C-3 35.8071 8.19288 47 22 47L22 41ZM41 22C41 32.4934 32.4934 41 22 41L22 47C35.8071 47 47 35.8071 47 22L41 22ZM22 3C32.4934 3 41 11.5066 41 22L47 22C47 8.19288 35.8071 -3 22 -3L22 3ZM22 -3C8.19288 -3 -3 8.19288 -3 22L3 22C3 11.5066 11.5066 3 22 3L22 -3Z"/>
</svg>