<?xml version="1.0" encoding="UTF-8" standalone="no"?>
<svg version="1.2" baseProfile="tiny" viewBox="0 0 102 74" xmlns="http://www.w3.org/2000/svg">
	<path fill="#ffffff" stroke-width="0.0" fill-opacity="0.10999999940395355" stroke-opacity="0.10999999940395355" d="M0 12.8C0 8.31958 0 6.07937 0.871948 4.36808C1.63893 2.86278 2.86278 1.63893 4.36808 0.871948C6.07937 0 8.31958 0 12.8 0L89.2 0C93.6804 0 95.9206 0 97.6319 0.871948C99.1372 1.63893 100.361 2.86278 101.128 4.36808C102 6.07937 102 8.31958 102 12.8L102 61.2C102 65.6804 102 67.9206 101.128 69.6319C100.361 71.1372 99.1372 72.3611 97.6319 73.1281C95.9206 74 93.6804 74 89.2 74L12.8 74C8.31958 74 6.07937 74 4.36808 73.1281C2.86278 72.3611 1.63893 71.1372 0.871948 69.6319C0 67.9206 0 65.6804 0 61.2L0 12.8Z"/>
</svg>