<?xml version="1.0" encoding="UTF-8" standalone="no"?>
<svg version="1.2" baseProfile="tiny" viewBox="0 0 415 610" xmlns="http://www.w3.org/2000/svg">
	<path fill="#7f7f7f" stroke-width="1.399999976158142" fill-opacity="0.30000001192092896" stroke-opacity="0.30000001192092896" d="M0 73.6C0 47.8376 0 34.9564 5.0137 25.1164C9.42387 16.461 16.461 9.42387 25.1164 5.0137C34.9564 0 47.8376 0 73.6 0L341.4 0C367.162 0 380.044 0 389.884 5.0137C398.539 9.42387 405.576 16.461 409.986 25.1164C415 34.9564 415 47.8376 415 73.6L415 536.4C415 562.162 415 575.044 409.986 584.884C405.576 593.539 398.539 600.576 389.884 604.986C380.044 610 367.162 610 341.4 610L73.6 610C47.8376 610 34.9564 610 25.1164 604.986C16.461 600.576 9.42387 593.539 5.0137 584.884C0 575.044 0 562.162 0 536.4L0 73.6Z"/>
	<linearGradient id="gradient73" x1="0.07005492014158665" y1="-2.1380501810663866e-07" x2="0.46271935091771055" y2="0.8209549323193163">
		<stop offset="0.0" stop-color="#ffffff" stop-opacity="0.4000000059604645"/>
		<stop offset="0.4056868255138397" stop-color="#ffffff" stop-opacity="9.999999747378752e-05"/>
		<stop offset="0.5743719935417175" stop-color="#ffffff" stop-opacity="9.999999747378752e-05"/>
		<stop offset="1.0" stop-color="#ffffff" stop-opacity="0.10000000149011612"/>
	</linearGradient>
	<path fill="url(#gradient73)" stroke-width="1.399999976158142" fill-opacity="0.10000000149011612" stroke-opacity="0.10000000149011612" d="M25.1164 604.986L25.752 603.739L25.1164 604.986ZM409.986 584.884L408.739 584.248L409.986 584.884ZM389.884 604.986L389.248 603.739L389.884 604.986ZM389.884 5.0137L389.248 6.26111L389.884 5.0137ZM409.986 25.1164L408.739 25.752L409.986 25.1164ZM73.6 1.4L341.4 1.4L341.4 -1.4L73.6 -1.4L73.6 1.4ZM413.6 73.6L413.6 536.4L416.4 536.4L416.4 73.6L413.6 73.6ZM341.4 608.6L73.6 608.6L73.6 611.4L341.4 611.4L341.4 608.6ZM1.4 536.4L1.4 73.6L-1.4 73.6L-1.4 536.4L1.4 536.4ZM73.6 608.6C60.6957 608.6 51.1017 608.599 43.5013 607.978C35.9173 607.358 30.4417 606.128 25.752 603.739L24.4809 606.234C29.6311 608.858 35.5161 610.135 43.2733 610.769C51.0141 611.401 60.7419 611.4 73.6 611.4L73.6 608.6ZM-1.4 536.4C-1.4 549.258 -1.40109 558.986 -0.768638 566.727C-0.134852 574.484 1.14212 580.369 3.76629 585.519L6.26111 584.248C3.87158 579.558 2.6417 574.083 2.02206 566.499C1.40109 558.898 1.4 549.304 1.4 536.4L-1.4 536.4ZM25.752 603.739C17.36 599.463 10.5371 592.64 6.26111 584.248L3.76629 585.519C8.31069 594.438 15.562 601.689 24.4809 606.234L25.752 603.739ZM413.6 536.4C413.6 549.304 413.599 558.898 412.978 566.499C412.358 574.083 411.128 579.558 408.739 584.248L411.234 585.519C413.858 580.369 415.135 574.484 415.769 566.727C416.401 558.986 416.4 549.258 416.4 536.4L413.6 536.4ZM341.4 611.4C354.258 611.4 363.986 611.401 371.727 610.769C379.484 610.135 385.369 608.858 390.519 606.234L389.248 603.739C384.558 606.128 379.083 607.358 371.499 607.978C363.898 608.599 354.304 608.6 341.4 608.6L341.4 611.4ZM408.739 584.248C404.463 592.64 397.64 599.463 389.248 603.739L390.519 606.234C399.438 601.689 406.689 594.438 411.234 585.519L408.739 584.248ZM341.4 1.4C354.304 1.4 363.898 1.40109 371.499 2.02206C379.083 2.6417 384.558 3.87158 389.248 6.26111L390.519 3.76629C385.369 1.14212 379.484 -0.134852 371.727 -0.768638C363.986 -1.40109 354.258 -1.4 341.4 -1.4L341.4 1.4ZM416.4 73.6C416.4 60.7419 416.401 51.0141 415.769 43.2733C415.135 35.5161 413.858 29.6311 411.234 24.4809L408.739 25.752C411.128 30.4417 412.358 35.9173 412.978 43.5013C413.599 51.1017 413.6 60.6957 413.6 73.6L416.4 73.6ZM389.248 6.26111C397.64 10.5371 404.463 17.36 408.739 25.752L411.234 24.4809C406.689 15.562 399.438 8.31069 390.519 3.76629L389.248 6.26111ZM73.6 -1.4C60.7419 -1.4 51.0141 -1.40109 43.2733 -0.768638C35.5161 -0.134852 29.6311 1.14212 24.4809 3.76629L25.752 6.26111C30.4417 3.87158 35.9173 2.6417 43.5013 2.02206C51.1017 1.40109 60.6957 1.4 73.6 1.4L73.6 -1.4ZM1.4 73.6C1.4 60.6957 1.40109 51.1017 2.02206 43.5013C2.6417 35.9173 3.87158 30.4417 6.26111 25.752L3.76629 24.4809C1.14212 29.6311 -0.134852 35.5161 -0.768638 43.2733C-1.40109 51.0141 -1.4 60.7419 -1.4 73.6L1.4 73.6ZM24.4809 3.76629C15.562 8.31069 8.31069 15.562 3.76629 24.4809L6.26111 25.752C10.5371 17.36 17.36 10.5371 25.752 6.26111L24.4809 3.76629Z"/>
</svg>