<?xml version="1.0" encoding="UTF-8" standalone="no"?>
<svg version="1.2" baseProfile="tiny" viewBox="0 0 32 32" xmlns="http://www.w3.org/2000/svg">
	<path fill="#ffffff" stroke-width="2.0" fill-opacity="1.0" stroke-opacity="1.0" d="M16 30C8.26801 30 2 23.732 2 16L-2 16C-2 25.9411 6.05887 34 16 34L16 30ZM30 16C30 23.732 23.732 30 16 30L16 34C25.9411 34 34 25.9411 34 16L30 16ZM16 2C23.732 2 30 8.26801 30 16L34 16C34 6.05887 25.9411 -2 16 -2L16 2ZM16 -2C6.05887 -2 -2 6.05887 -2 16L2 16C2 8.26801 8.26801 2 16 2L16 -2Z"/>
</svg>