<?xml version="1.0" encoding="UTF-8" standalone="no"?>
<svg version="1.2" baseProfile="tiny" viewBox="0 0 104 104" xmlns="http://www.w3.org/2000/svg">
	<path fill="#ff4015" stroke-width="0.0" fill-opacity="1.0" stroke-opacity="1.0" d="M0 35.2C0 22.8788 0 16.7183 2.39786 12.0122C4.50707 7.87264 7.87264 4.50707 12.0122 2.39786C16.7183 0 22.8788 0 35.2 0L68.8 0C81.1212 0 87.2817 0 91.9878 2.39786C96.1274 4.50707 99.4929 7.87264 101.602 12.0122C104 16.7183 104 22.8788 104 35.2L104 68.8C104 81.1212 104 87.2817 101.602 91.9878C99.4929 96.1274 96.1274 99.4929 91.9878 101.602C87.2817 104 81.1212 104 68.8 104L35.2 104C22.8788 104 16.7183 104 12.0122 101.602C7.87264 99.4929 4.50707 96.1274 2.39786 91.9878C0 87.2817 0 81.1212 0 68.8L0 35.2Z"/>
</svg>