<?xml version="1.0" encoding="UTF-8" standalone="no"?>
<svg version="1.2" baseProfile="tiny" viewBox="0 0 117 36" xmlns="http://www.w3.org/2000/svg">
	<path fill="#ffffff" stroke-width="0.5" fill-opacity="0.05999999865889549" stroke-opacity="0.05999999865889549" d="M0 18C0 8.05888 8.05888 0 18 0L99 0C108.941 0 117 8.05888 117 18L117 18C117 27.9411 108.941 36 99 36L18 36C8.05887 36 0 27.9411 0 18L0 18Z"/>
	<linearGradient id="gradient78" x1="0.08437499368868032" y1="0.01875002520766411" x2="0.14830508255472086" y2="1.1666666672287194">
		<stop offset="0.0" stop-color="#ffffff" stop-opacity="0.4000000059604645"/>
		<stop offset="0.4056868255138397" stop-color="#ffffff" stop-opacity="9.999999747378752e-05"/>
		<stop offset="0.5743719935417175" stop-color="#ffffff" stop-opacity="9.999999747378752e-05"/>
		<stop offset="1.0" stop-color="#ffffff" stop-opacity="0.10000000149011612"/>
	</linearGradient>
	<path fill="url(#gradient78)" stroke-width="0.5" fill-opacity="0.10000000149011612" stroke-opacity="0.10000000149011612" d="M18 0.5L99 0.5L99 -0.5L18 -0.5L18 0.5ZM99 35.5L18 35.5L18 36.5L99 36.5L99 35.5ZM18 35.5C8.33502 35.5 0.5 27.665 0.5 18L-0.5 18C-0.5 28.2173 7.78273 36.5 18 36.5L18 35.5ZM116.5 18C116.5 27.665 108.665 35.5 99 35.5L99 36.5C109.217 36.5 117.5 28.2173 117.5 18L116.5 18ZM99 0.5C108.665 0.5 116.5 8.33502 116.5 18L117.5 18C117.5 7.78273 109.217 -0.5 99 -0.5L99 0.5ZM18 -0.5C7.78273 -0.5 -0.5 7.78273 -0.5 18L0.5 18C0.5 8.33502 8.33502 0.5 18 0.5L18 -0.5Z"/>
</svg>