<?xml version="1.0" encoding="UTF-8" standalone="no"?>
<svg version="1.2" baseProfile="tiny"  xmlns="http://www.w3.org/2000/svg">
	<path fill="#ffffff" stroke-width="3.0" fill-opacity="1.0" stroke-opacity="1.0" d="M1.06066 4.43934C0.474874 3.85355 -0.474874 3.85355 -1.06066 4.43934C-1.64645 5.02513 -1.64645 5.97487 -1.06066 6.56066L1.06066 4.43934ZM3.5 9L2.43934 10.0607C2.73146 10.3528 3.13112 10.5115 3.54406 10.4994C3.957 10.4872 4.34665 10.3053 4.62111 9.99655L3.5 9ZM12.6211 0.996546C13.1715 0.377372 13.1157 -0.570737 12.4965 -1.12111C11.8774 -1.67149 10.9293 -1.61572 10.3789 -0.996546L12.6211 0.996546ZM-1.06066 6.56066L2.43934 10.0607L4.56066 7.93934L1.06066 4.43934L-1.06066 6.56066ZM4.62111 9.99655L12.6211 0.996546L10.3789 -0.996546L2.37889 8.00345L4.62111 9.99655Z"/>
</svg>