<?xml version="1.0" encoding="UTF-8" standalone="no"?>
<svg version="1.2" baseProfile="tiny" viewBox="0 0 661 411" xmlns="http://www.w3.org/2000/svg">
	<path fill="#828282" stroke-width="1.0" fill-opacity="1.0" stroke-opacity="1.0" d="M0 0L661 0L661 411L0 411L0 0Z"/>
	<path fill="#000000" stroke-width="1.0" fill-opacity="1.0" stroke-opacity="1.0" d="M0 0L0 -1L-1 -1L-1 0L0 0ZM661 0L662 0L662 -1L661 -1L661 0ZM661 411L661 412L662 412L662 411L661 411ZM0 411L-1 411L-1 412L0 412L0 411ZM0 1L661 1L661 -1L0 -1L0 1ZM660 0L660 411L662 411L662 0L660 0ZM661 410L0 410L0 412L661 412L661 410ZM1 411L1 0L-1 0L-1 411L1 411Z"/>
</svg>