<?xml version="1.0" encoding="UTF-8" standalone="no"?>
<svg version="1.2" baseProfile="tiny" viewBox="0 0 105 74" xmlns="http://www.w3.org/2000/svg">
	<path fill="#ffffff" stroke-width="0.0" fill-opacity="0.10999999940395355" stroke-opacity="0.10999999940395355" d="M0 12.8C0 8.31958 0 6.07937 0.871948 4.36808C1.63893 2.86278 2.86278 1.63893 4.36808 0.871948C6.07937 0 8.31958 0 12.8 0L92.2 0C96.6804 0 98.9206 0 100.632 0.871948C102.137 1.63893 103.361 2.86278 104.128 4.36808C105 6.07937 105 8.31958 105 12.8L105 61.2C105 65.6804 105 67.9206 104.128 69.6319C103.361 71.1372 102.137 72.3611 100.632 73.1281C98.9206 74 96.6804 74 92.2 74L12.8 74C8.31958 74 6.07937 74 4.36808 73.1281C2.86278 72.3611 1.63893 71.1372 0.871948 69.6319C0 67.9206 0 65.6804 0 61.2L0 12.8Z"/>
</svg>