<?xml version="1.0" encoding="UTF-8" standalone="no"?>
<svg version="1.2" baseProfile="tiny" viewBox="0 0 367 340" xmlns="http://www.w3.org/2000/svg">
	<path fill="#000000" stroke-width="1.0" fill-opacity="1.0" stroke-opacity="1.0" d="M0 25.6C0 16.6392 0 12.1587 1.7439 8.73615C3.27787 5.72556 5.72556 3.27787 8.73615 1.7439C12.1587 0 16.6392 0 25.6 0L341.4 0C350.361 0 354.841 0 358.264 1.7439C361.274 3.27787 363.722 5.72556 365.256 8.73615C367 12.1587 367 16.6392 367 25.6L367 314.4C367 323.361 367 327.841 365.256 331.264C363.722 334.274 361.274 336.722 358.264 338.256C354.841 340 350.361 340 341.4 340L25.6 340C16.6392 340 12.1587 340 8.73615 338.256C5.72556 336.722 3.27787 334.274 1.7439 331.264C0 327.841 0 323.361 0 314.4L0 25.6Z"/>
</svg>