<?xml version="1.0" encoding="UTF-8" standalone="no"?>
<svg version="1.2" baseProfile="tiny" viewBox="0 0 332 37" xmlns="http://www.w3.org/2000/svg">
	<path fill="#444444" stroke-width="1.0" fill-opacity="1.0" stroke-opacity="1.0" d="M0 0L332 0L332 37L0 37L0 0Z"/>
	<path fill="#757575" stroke-width="1.0" fill-opacity="1.0" stroke-opacity="1.0" d="M0 0L0 -1L-1 -1L-1 0L0 0ZM332 0L333 0L333 -1L332 -1L332 0ZM332 37L332 38L333 38L333 37L332 37ZM0 37L-1 37L-1 38L0 38L0 37ZM0 1L332 1L332 -1L0 -1L0 1ZM331 0L331 37L333 37L333 0L331 0ZM332 36L0 36L0 38L332 38L332 36ZM1 37L1 0L-1 0L-1 37L1 37Z"/>
</svg>