<?xml version="1.0" encoding="UTF-8" standalone="no"?>
<svg version="1.2" baseProfile="tiny" viewBox="0 0 28 28" xmlns="http://www.w3.org/2000/svg">
	<path fill="#ff0000" stroke-width="2.0" fill-opacity="0.20000000298023224" stroke-opacity="0.20000000298023224" d="M0 14C0 6.26801 6.26801 0 14 0L14 0C21.732 0 28 6.26801 28 14L28 14C28 21.732 21.732 28 14 28L14 28C6.26801 28 0 21.732 0 14L0 14Z"/>
	<path fill="#5e5e5e" stroke-width="2.0" fill-opacity="0.6000000238418579" stroke-opacity="0.6000000238418579" d="M14 26C7.37258 26 2 20.6274 2 14L-2 14C-2 22.8366 5.16344 30 14 30L14 26ZM26 14C26 20.6274 20.6274 26 14 26L14 30C22.8366 30 30 22.8366 30 14L26 14ZM14 2C20.6274 2 26 7.37258 26 14L30 14C30 5.16344 22.8366 -2 14 -2L14 2ZM14 -2C5.16344 -2 -2 5.16344 -2 14L2 14C2 7.37258 7.37258 2 14 2L14 -2Z"/>
</svg>